<svg xmlns="http://www.w3.org/2000/svg" xmlns:xlink="http://www.w3.org/1999/xlink" width="500" zoomAndPan="magnify" viewBox="0 0 375 374.999991" height="500" preserveAspectRatio="xMidYMid meet" version="1.0"><defs><g/><clipPath id="e8a02f30f5"><path d="M 113.609375 120 L 137 120 L 137 174 L 113.609375 174 Z M 113.609375 120 " clip-rule="nonzero"/></clipPath><clipPath id="9d691815ab"><path d="M 136 107 L 240 107 L 240 187.355469 L 136 187.355469 Z M 136 107 " clip-rule="nonzero"/></clipPath><clipPath id="a154fa64c2"><path d="M 239 120 L 261.359375 120 L 261.359375 174 L 239 174 Z M 239 120 " clip-rule="nonzero"/></clipPath></defs><rect x="-37.5" width="450" fill="#ffffff" y="-37.499999" height="449.999989" fill-opacity="1"/><rect x="-37.5" width="450" fill="#ffffff" y="-37.499999" height="449.999989" fill-opacity="1"/><g clip-path="url(#e8a02f30f5)"><path fill="#000000" d="M 136.078125 171.546875 L 128.644531 171.601562 C 127.578125 171.601562 126.453125 171.714844 125.394531 171.558594 C 124.5625 171.4375 123.941406 171.074219 123.726562 170.230469 C 123.472656 169.230469 123.585938 168.101562 123.574219 167.078125 C 123.558594 165.808594 123.550781 164.535156 123.546875 163.257812 C 123.53125 160.777344 123.53125 158.300781 123.546875 155.824219 C 123.628906 145.921875 123.949219 136.023438 124.515625 126.121094 C 124.578125 125.019531 124.496094 123.765625 124.863281 122.707031 C 125.226562 121.652344 126.269531 121.667969 127.234375 121.667969 L 135.652344 121.6875 C 136.660156 121.6875 136.660156 120.125 135.652344 120.125 L 127.75 120.109375 C 126.648438 120.109375 125.402344 120.015625 124.464844 120.699219 C 123.59375 121.328125 123.269531 122.324219 123.136719 123.34375 C 122.980469 124.546875 122.960938 125.777344 122.894531 126.980469 C 122.820312 128.304688 122.75 129.628906 122.683594 130.949219 C 122.558594 133.539062 122.449219 136.132812 122.355469 138.722656 C 122.355469 138.792969 122.355469 138.859375 122.355469 138.925781 C 122.238281 138.859375 122.113281 138.824219 121.980469 138.820312 L 118.203125 138.765625 C 117.164062 138.746094 115.914062 138.535156 114.949219 138.988281 C 113.988281 139.4375 113.765625 140.453125 113.742188 141.402344 C 113.710938 142.621094 113.71875 143.835938 113.703125 145.050781 C 113.683594 146.96875 113.664062 148.878906 113.644531 150.78125 C 113.609375 151.421875 113.667969 152.054688 113.820312 152.675781 C 113.949219 153.132812 114.148438 153.558594 114.414062 153.957031 C 114.679688 154.351562 114.996094 154.695312 115.371094 154.988281 C 115.746094 155.28125 116.15625 155.511719 116.601562 155.675781 C 117.050781 155.839844 117.511719 155.929688 117.984375 155.949219 C 118.753906 155.984375 119.507812 156.097656 120.277344 156.101562 C 121.28125 156.101562 121.285156 154.546875 120.277344 154.539062 C 119.640625 154.539062 119.019531 154.453125 118.386719 154.402344 C 117.761719 154.40625 117.171875 154.257812 116.625 153.960938 C 115.5625 153.316406 115.191406 152.199219 115.203125 151.015625 C 115.21875 149.460938 115.234375 147.902344 115.25 146.34375 L 115.285156 143.070312 C 115.285156 142.558594 115.285156 142.027344 115.285156 141.523438 C 115.285156 141.21875 115.253906 140.765625 115.453125 140.507812 C 115.65625 140.25 116.148438 140.289062 116.476562 140.292969 C 117.042969 140.292969 117.613281 140.292969 118.1875 140.316406 L 121.980469 140.382812 C 122.101562 140.386719 122.21875 140.363281 122.328125 140.3125 C 122.167969 145.027344 122.0625 149.742188 122.019531 154.457031 C 121.980469 157.050781 121.96875 159.644531 121.980469 162.242188 C 121.980469 163.566406 121.980469 164.890625 122.007812 166.21875 C 121.972656 167.433594 122.003906 168.648438 122.09375 169.859375 C 122.222656 171.03125 122.699219 172.140625 123.800781 172.695312 C 124.902344 173.25 126.171875 173.183594 127.367188 173.175781 L 136.078125 173.113281 C 137.082031 173.101562 137.082031 171.539062 136.078125 171.546875 Z M 136.078125 171.546875 " fill-opacity="1" fill-rule="nonzero"/></g><g clip-path="url(#9d691815ab)"><path fill="#000000" d="M 239.019531 122.996094 C 238.945312 120.632812 238.863281 118.265625 238.769531 115.902344 C 238.695312 113.878906 238.59375 111.902344 237.359375 110.199219 C 236.832031 109.472656 236.179688 108.875 235.410156 108.410156 C 234.636719 107.941406 233.808594 107.644531 232.914062 107.511719 C 231.113281 107.230469 229.292969 107.445312 227.484375 107.558594 C 225.261719 107.703125 223.019531 107.621094 220.792969 107.628906 C 220.421875 107.628906 220.054688 107.664062 219.691406 107.734375 C 219.328125 107.808594 218.972656 107.914062 218.628906 108.054688 C 218.289062 108.195312 217.960938 108.367188 217.652344 108.570312 C 217.34375 108.773438 217.054688 109.007812 216.792969 109.269531 C 216.527344 109.527344 216.292969 109.8125 216.085938 110.117188 C 215.875 110.425781 215.699219 110.75 215.554688 111.089844 C 215.410156 111.429688 215.300781 111.78125 215.222656 112.144531 C 215.148438 112.507812 215.105469 112.875 215.101562 113.246094 C 215.074219 115.675781 215.101562 118.105469 215.101562 120.515625 L 215.101562 140.339844 C 208.171875 140.140625 201.238281 140.015625 194.308594 139.96875 C 187.128906 139.921875 179.953125 139.960938 172.773438 140.082031 C 168.707031 140.152344 164.640625 140.25 160.574219 140.371094 C 160.359375 140.375 160.179688 140.453125 160.027344 140.605469 C 159.875 140.757812 159.796875 140.941406 159.792969 141.152344 L 159.746094 148.695312 C 159.726562 153.519531 159.707031 158.34375 159.6875 163.164062 C 159.6875 166.324219 159.675781 169.480469 159.652344 172.636719 C 159.652344 175.648438 159.058594 178.578125 157.484375 181.175781 C 156.726562 182.484375 155.726562 183.5625 154.472656 184.410156 C 153.4375 185.078125 152.304688 185.457031 151.074219 185.554688 C 148.605469 185.71875 146.148438 184.714844 144.238281 183.160156 C 141.644531 181.042969 140.175781 178.082031 139.375 174.824219 C 138.332031 170.515625 138.398438 165.980469 138.300781 161.578125 C 138.1875 156.558594 138.136719 151.539062 138.148438 146.515625 C 138.148438 136.53125 138.398438 126.550781 138.773438 116.570312 C 138.851562 114.550781 138.773438 112.40625 140.164062 110.757812 C 141.339844 109.398438 143.03125 108.949219 144.773438 108.925781 C 146.765625 108.898438 148.746094 109.203125 150.738281 109.191406 L 153.640625 109.191406 C 154.660156 109.191406 155.722656 109.089844 156.710938 109.441406 C 157.425781 109.707031 158.015625 110.140625 158.484375 110.738281 C 158.953125 111.332031 159.234375 112.007812 159.328125 112.761719 C 159.359375 113.191406 159.367188 113.617188 159.351562 114.046875 L 159.351562 130.445312 C 159.351562 131.449219 160.914062 131.453125 160.914062 130.445312 L 160.914062 113.757812 C 160.945312 113 160.855469 112.257812 160.648438 111.53125 C 160.367188 110.671875 159.90625 109.921875 159.269531 109.28125 C 158.632812 108.640625 157.886719 108.179688 157.027344 107.898438 C 155.945312 107.550781 154.773438 107.628906 153.648438 107.628906 C 152.636719 107.628906 151.617188 107.628906 150.601562 107.628906 C 146.839844 107.628906 142.265625 106.351562 139.296875 109.410156 C 138.566406 110.175781 138.035156 111.0625 137.707031 112.070312 C 137.398438 113.144531 137.25 114.238281 137.261719 115.355469 C 137.167969 117.902344 137.082031 120.449219 137.003906 122.996094 C 136.84375 128.132812 136.726562 133.269531 136.65625 138.402344 C 136.585938 143.535156 136.574219 148.671875 136.625 153.8125 C 136.671875 158.765625 136.679688 163.742188 136.972656 168.6875 C 137.234375 172.9375 137.894531 177.425781 140.253906 181.070312 C 141.023438 182.261719 141.957031 183.3125 143.046875 184.21875 C 144.140625 185.125 145.34375 185.847656 146.65625 186.386719 C 147.9375 186.929688 149.273438 187.179688 150.667969 187.132812 C 152.058594 187.089844 153.378906 186.757812 154.625 186.136719 C 157.890625 184.441406 159.933594 180.785156 160.738281 177.316406 C 161.105469 175.5 161.265625 173.660156 161.222656 171.804688 L 161.246094 167.078125 C 161.261719 162.199219 161.28125 157.320312 161.304688 152.445312 L 161.34375 141.914062 C 168.292969 141.707031 175.238281 141.582031 182.183594 141.535156 C 189.359375 141.488281 196.542969 141.523438 203.734375 141.644531 C 207.519531 141.707031 211.308594 141.792969 215.097656 141.902344 L 215.097656 144.335938 C 215.097656 144.425781 215.109375 144.515625 215.140625 144.601562 L 215.121094 151.234375 L 215.121094 151.882812 L 171.015625 151.882812 C 168.929688 151.882812 166.863281 151.816406 164.792969 151.882812 L 164.695312 151.882812 C 163.691406 151.882812 163.691406 153.445312 164.695312 153.445312 L 209.601562 153.445312 C 211.6875 153.445312 213.753906 153.511719 215.820312 153.445312 L 215.90625 153.445312 C 216.121094 153.441406 216.304688 153.363281 216.453125 153.210938 C 216.605469 153.0625 216.683594 152.878906 216.6875 152.664062 L 216.71875 142.570312 C 216.71875 142.09375 216.71875 141.617188 216.71875 141.144531 C 216.71875 141.042969 216.699219 140.949219 216.664062 140.855469 L 216.664062 114.246094 C 216.664062 113.097656 216.664062 112.027344 217.332031 111.003906 C 217.710938 110.441406 218.199219 109.996094 218.796875 109.675781 C 219.394531 109.355469 220.035156 109.191406 220.714844 109.191406 C 221.582031 109.191406 222.453125 109.191406 223.320312 109.191406 C 224.363281 109.191406 225.421875 109.21875 226.464844 109.191406 C 228.261719 109.121094 230.066406 108.84375 231.859375 108.96875 C 233.4375 109.070312 234.984375 109.664062 235.976562 110.933594 C 237.179688 112.492188 237.15625 114.375 237.226562 116.246094 C 237.574219 125.472656 237.804688 134.703125 237.855469 143.9375 C 237.878906 148.570312 237.855469 153.1875 237.785156 157.789062 C 237.71875 162.113281 237.746094 166.472656 237.308594 170.785156 C 236.960938 174.332031 236.105469 178.039062 233.945312 180.949219 C 232.515625 182.863281 230.683594 184.234375 228.441406 185.0625 C 227.371094 185.457031 226.265625 185.632812 225.121094 185.578125 C 223.996094 185.523438 222.941406 185.21875 221.957031 184.667969 C 219.175781 183.101562 217.503906 179.925781 216.808594 176.914062 C 216.328125 174.832031 216.363281 172.703125 216.285156 170.59375 C 216.203125 168.484375 216.121094 166.328125 216.039062 164.199219 L 215.988281 162.90625 C 215.949219 161.902344 214.386719 161.898438 214.425781 162.90625 C 214.554688 166.21875 214.710938 169.53125 214.808594 172.84375 C 214.820312 174.621094 215.050781 176.371094 215.503906 178.089844 C 216.015625 179.9375 216.847656 181.625 218 183.160156 C 219.734375 185.417969 222.167969 186.980469 225.042969 187.140625 C 227.546875 187.277344 230.066406 186.347656 232.082031 184.902344 C 234.53125 183.109375 236.277344 180.789062 237.320312 177.933594 C 238.824219 174.054688 239.054688 169.796875 239.175781 165.679688 C 239.320312 160.972656 239.402344 156.265625 239.425781 151.558594 C 239.476562 142.023438 239.320312 132.5 239.019531 122.996094 Z M 239.019531 122.996094 " fill-opacity="1" fill-rule="nonzero"/></g><g clip-path="url(#a154fa64c2)"><path fill="#000000" d="M 261.265625 146.007812 C 261.265625 144.777344 261.242188 143.542969 261.230469 142.308594 C 261.230469 141.335938 261.320312 140.140625 260.574219 139.386719 C 259.691406 138.492188 258.230469 138.742188 257.101562 138.757812 L 253.664062 138.808594 C 253.496094 134.179688 253.277344 129.546875 253.003906 124.917969 C 252.9375 123.796875 252.933594 122.558594 252.339844 121.5625 C 251.644531 120.390625 250.371094 120.121094 249.097656 120.113281 C 246.1875 120.113281 243.273438 120.113281 240.363281 120.136719 C 239.359375 120.136719 239.355469 121.699219 240.363281 121.699219 L 247.835938 121.679688 C 248.398438 121.679688 248.960938 121.660156 249.519531 121.679688 C 249.96875 121.65625 250.378906 121.769531 250.746094 122.027344 C 251.347656 122.546875 251.359375 123.566406 251.40625 124.289062 C 251.710938 129.265625 251.949219 134.242188 252.117188 139.222656 C 252.464844 149.105469 252.632812 159.019531 252.425781 168.914062 C 252.410156 169.804688 252.363281 170.886719 251.441406 171.316406 C 250.515625 171.746094 249.3125 171.589844 248.316406 171.582031 L 239.945312 171.519531 C 238.9375 171.519531 238.9375 173.078125 239.945312 173.082031 L 247.804688 173.144531 C 249.761719 173.144531 252.492188 173.464844 253.53125 171.34375 C 254.023438 170.339844 253.984375 169.183594 253.996094 168.09375 C 254.015625 166.765625 254.023438 165.441406 254.035156 164.117188 C 254.046875 161.519531 254.046875 158.925781 254.035156 156.332031 C 254.035156 156.132812 254.035156 155.933594 254.035156 155.734375 C 254.179688 155.984375 254.394531 156.097656 254.679688 156.082031 C 255.375 156.082031 256.070312 155.957031 256.765625 155.929688 C 257.074219 155.933594 257.378906 155.902344 257.679688 155.84375 C 257.984375 155.78125 258.277344 155.691406 258.558594 155.570312 C 258.84375 155.453125 259.113281 155.304688 259.367188 155.128906 C 259.621094 154.953125 259.851562 154.753906 260.066406 154.527344 C 260.277344 154.304688 260.464844 154.0625 260.628906 153.800781 C 260.792969 153.539062 260.925781 153.261719 261.035156 152.972656 C 261.140625 152.683594 261.214844 152.386719 261.261719 152.082031 C 261.308594 151.777344 261.320312 151.46875 261.304688 151.164062 Z M 259.703125 151.988281 C 259.566406 152.664062 259.238281 153.234375 258.71875 153.691406 C 258.160156 154.164062 257.511719 154.394531 256.777344 154.386719 C 256.082031 154.414062 255.390625 154.53125 254.695312 154.535156 C 254.394531 154.523438 254.175781 154.652344 254.039062 154.917969 C 253.980469 150.074219 253.875 145.222656 253.71875 140.363281 L 256.242188 140.324219 L 257.785156 140.300781 C 258.25 140.253906 258.710938 140.265625 259.175781 140.328125 C 259.871094 140.492188 259.667969 141.699219 259.671875 142.210938 L 259.707031 145.480469 L 259.757812 150.613281 C 259.789062 151.074219 259.769531 151.53125 259.703125 151.988281 Z M 259.703125 151.988281 " fill-opacity="1" fill-rule="nonzero"/></g><g fill="#000000" fill-opacity="1"><g transform="translate(96.19502, 221.301547)"><g><path d="M 7.328125 -17.875 L 7.328125 0 L 5.53125 0 L 5.53125 -17.875 L 0.578125 -17.875 L 0.578125 -19.5 L 12.296875 -19.5 L 12.296875 -17.875 Z M 7.328125 -17.875 "/></g></g></g><g fill="#000000" fill-opacity="1"><g transform="translate(123.842971, 221.301547)"><g><path d="M 3.65625 -7.921875 L 3.65625 0 L 1.84375 0 L 1.84375 -19.5 L 7.25 -19.5 C 7.945312 -19.5 8.644531 -19.421875 9.34375 -19.265625 C 10.050781 -19.109375 10.695312 -18.820312 11.28125 -18.40625 C 11.863281 -18 12.332031 -17.4375 12.6875 -16.71875 C 13.039062 -16.007812 13.21875 -15.085938 13.21875 -13.953125 L 13.21875 -13.453125 C 13.21875 -12.421875 13.0625 -11.554688 12.75 -10.859375 C 12.445312 -10.171875 12.039062 -9.617188 11.53125 -9.203125 C 11.03125 -8.796875 10.46875 -8.492188 9.84375 -8.296875 L 13.21875 0 L 11.25 0 L 8.15625 -7.953125 C 8 -7.929688 7.84375 -7.921875 7.6875 -7.921875 C 7.539062 -7.921875 7.394531 -7.921875 7.25 -7.921875 Z M 3.65625 -9.546875 L 7.296875 -9.546875 C 7.710938 -9.546875 8.15625 -9.59375 8.625 -9.6875 C 9.101562 -9.789062 9.550781 -9.984375 9.96875 -10.265625 C 10.382812 -10.554688 10.722656 -10.960938 10.984375 -11.484375 C 11.242188 -12.015625 11.375 -12.695312 11.375 -13.53125 L 11.375 -13.90625 C 11.375 -14.738281 11.242188 -15.414062 10.984375 -15.9375 C 10.722656 -16.457031 10.382812 -16.859375 9.96875 -17.140625 C 9.550781 -17.429688 9.101562 -17.625 8.625 -17.71875 C 8.15625 -17.820312 7.710938 -17.875 7.296875 -17.875 L 3.65625 -17.875 Z M 3.65625 -9.546875 "/></g></g></g><g fill="#000000" fill-opacity="1"><g transform="translate(153.215649, 221.301547)"><g><path d="M 3.78125 -19.5 L 3.78125 0 L 1.96875 0 L 1.96875 -19.5 Z M 3.78125 -19.5 "/></g></g></g><g fill="#000000" fill-opacity="1"><g transform="translate(173.739723, 221.301547)"><g><path d="M 8.53125 0.28125 C 6.175781 0.28125 4.398438 -0.460938 3.203125 -1.953125 C 2.015625 -3.453125 1.421875 -5.882812 1.421875 -9.25 L 1.421875 -10.25 C 1.421875 -13.632812 2.007812 -16.066406 3.1875 -17.546875 C 4.363281 -19.035156 6.0625 -19.78125 8.28125 -19.78125 C 12.40625 -19.78125 14.46875 -17.550781 14.46875 -13.09375 L 14.46875 -12.40625 L 12.65625 -12.40625 C 12.65625 -14.414062 12.320312 -15.875 11.65625 -16.78125 C 11 -17.695312 9.921875 -18.15625 8.421875 -18.15625 L 8.28125 -18.15625 C 6.625 -18.15625 5.378906 -17.53125 4.546875 -16.28125 C 3.710938 -15.039062 3.296875 -13.03125 3.296875 -10.25 L 3.296875 -9.25 C 3.296875 -6.476562 3.710938 -4.46875 4.546875 -3.21875 C 5.378906 -1.96875 6.6875 -1.34375 8.46875 -1.34375 L 8.65625 -1.34375 C 9.632812 -1.34375 10.460938 -1.5 11.140625 -1.8125 C 11.816406 -2.132812 12.328125 -2.476562 12.671875 -2.84375 L 12.671875 -8 L 9.328125 -8 L 9.328125 -9.59375 L 14.46875 -9.59375 L 14.46875 -1.96875 C 13.957031 -1.425781 13.222656 -0.914062 12.265625 -0.4375 C 11.316406 0.0390625 10.070312 0.28125 8.53125 0.28125 Z M 8.53125 0.28125 "/></g></g></g><g fill="#000000" fill-opacity="1"><g transform="translate(204.712148, 221.301547)"><g><path d="M 8.53125 0.28125 C 6.175781 0.28125 4.398438 -0.460938 3.203125 -1.953125 C 2.015625 -3.453125 1.421875 -5.882812 1.421875 -9.25 L 1.421875 -10.25 C 1.421875 -13.632812 2.007812 -16.066406 3.1875 -17.546875 C 4.363281 -19.035156 6.0625 -19.78125 8.28125 -19.78125 C 12.40625 -19.78125 14.46875 -17.550781 14.46875 -13.09375 L 14.46875 -12.40625 L 12.65625 -12.40625 C 12.65625 -14.414062 12.320312 -15.875 11.65625 -16.78125 C 11 -17.695312 9.921875 -18.15625 8.421875 -18.15625 L 8.28125 -18.15625 C 6.625 -18.15625 5.378906 -17.53125 4.546875 -16.28125 C 3.710938 -15.039062 3.296875 -13.03125 3.296875 -10.25 L 3.296875 -9.25 C 3.296875 -6.476562 3.710938 -4.46875 4.546875 -3.21875 C 5.378906 -1.96875 6.6875 -1.34375 8.46875 -1.34375 L 8.65625 -1.34375 C 9.632812 -1.34375 10.460938 -1.5 11.140625 -1.8125 C 11.816406 -2.132812 12.328125 -2.476562 12.671875 -2.84375 L 12.671875 -8 L 9.328125 -8 L 9.328125 -9.59375 L 14.46875 -9.59375 L 14.46875 -1.96875 C 13.957031 -1.425781 13.222656 -0.914062 12.265625 -0.4375 C 11.316406 0.0390625 10.070312 0.28125 8.53125 0.28125 Z M 8.53125 0.28125 "/></g></g></g><g fill="#000000" fill-opacity="1"><g transform="translate(235.684574, 221.301547)"><g><path d="M 1.84375 -19.5 L 12.71875 -19.5 L 12.71875 -17.875 L 3.65625 -17.875 L 3.65625 -10.75 L 11.46875 -10.75 L 11.46875 -9.15625 L 3.65625 -9.15625 L 3.65625 -1.625 L 12.71875 -1.625 L 12.71875 0 L 1.84375 0 Z M 1.84375 -19.5 "/></g></g></g><g fill="#000000" fill-opacity="1"><g transform="translate(264.182386, 221.301547)"><g><path d="M 3.65625 -7.921875 L 3.65625 0 L 1.84375 0 L 1.84375 -19.5 L 7.25 -19.5 C 7.945312 -19.5 8.644531 -19.421875 9.34375 -19.265625 C 10.050781 -19.109375 10.695312 -18.820312 11.28125 -18.40625 C 11.863281 -18 12.332031 -17.4375 12.6875 -16.71875 C 13.039062 -16.007812 13.21875 -15.085938 13.21875 -13.953125 L 13.21875 -13.453125 C 13.21875 -12.421875 13.0625 -11.554688 12.75 -10.859375 C 12.445312 -10.171875 12.039062 -9.617188 11.53125 -9.203125 C 11.03125 -8.796875 10.46875 -8.492188 9.84375 -8.296875 L 13.21875 0 L 11.25 0 L 8.15625 -7.953125 C 8 -7.929688 7.84375 -7.921875 7.6875 -7.921875 C 7.539062 -7.921875 7.394531 -7.921875 7.25 -7.921875 Z M 3.65625 -9.546875 L 7.296875 -9.546875 C 7.710938 -9.546875 8.15625 -9.59375 8.625 -9.6875 C 9.101562 -9.789062 9.550781 -9.984375 9.96875 -10.265625 C 10.382812 -10.554688 10.722656 -10.960938 10.984375 -11.484375 C 11.242188 -12.015625 11.375 -12.695312 11.375 -13.53125 L 11.375 -13.90625 C 11.375 -14.738281 11.242188 -15.414062 10.984375 -15.9375 C 10.722656 -16.457031 10.382812 -16.859375 9.96875 -17.140625 C 9.550781 -17.429688 9.101562 -17.625 8.625 -17.71875 C 8.15625 -17.820312 7.710938 -17.875 7.296875 -17.875 L 3.65625 -17.875 Z M 3.65625 -9.546875 "/></g></g></g><g fill="#000000" fill-opacity="1"><g transform="translate(120.744702, 245.051571)"><g><path d="M 5 -0.828125 C 4.488281 -0.148438 3.890625 0.1875 3.203125 0.1875 C 2.097656 0.1875 1.546875 -0.441406 1.546875 -1.703125 L 1.546875 -6.828125 L 0.265625 -6.828125 L 0.265625 -7.296875 C 0.890625 -7.304688 1.328125 -7.492188 1.578125 -7.859375 C 1.796875 -8.171875 1.96875 -8.691406 2.09375 -9.421875 L 2.53125 -9.421875 L 2.53125 -7.390625 L 4.75 -7.390625 L 4.75 -6.828125 L 2.53125 -6.828125 L 2.53125 -2 C 2.53125 -0.976562 2.84375 -0.46875 3.46875 -0.46875 C 3.90625 -0.46875 4.304688 -0.695312 4.671875 -1.15625 Z M 5 -0.828125 "/></g></g><g transform="translate(125.725171, 245.051571)"><g><path d="M 4.421875 -7.671875 C 5.398438 -7.671875 6.226562 -7.335938 6.90625 -6.671875 C 7.625 -5.941406 7.984375 -4.992188 7.984375 -3.828125 C 7.984375 -2.597656 7.625 -1.625 6.90625 -0.90625 C 6.226562 -0.238281 5.398438 0.09375 4.421875 0.09375 C 3.429688 0.09375 2.601562 -0.238281 1.9375 -0.90625 C 1.21875 -1.625 0.859375 -2.585938 0.859375 -3.796875 C 0.859375 -4.984375 1.222656 -5.945312 1.953125 -6.6875 C 2.609375 -7.34375 3.429688 -7.671875 4.421875 -7.671875 Z M 4.421875 -7.15625 C 3.671875 -7.15625 3.070312 -6.835938 2.625 -6.203125 C 2.1875 -5.585938 1.96875 -4.785156 1.96875 -3.796875 C 1.96875 -2.742188 2.207031 -1.914062 2.6875 -1.3125 C 3.125 -0.75 3.703125 -0.46875 4.421875 -0.46875 C 5.304688 -0.46875 5.957031 -0.859375 6.375 -1.640625 C 6.707031 -2.265625 6.875 -2.976562 6.875 -3.78125 C 6.875 -4.84375 6.632812 -5.679688 6.15625 -6.296875 C 5.707031 -6.867188 5.128906 -7.15625 4.421875 -7.15625 Z M 4.421875 -7.15625 "/></g></g><g transform="translate(134.558178, 245.051571)"><g><path d="M 5 -0.828125 C 4.488281 -0.148438 3.890625 0.1875 3.203125 0.1875 C 2.097656 0.1875 1.546875 -0.441406 1.546875 -1.703125 L 1.546875 -6.828125 L 0.265625 -6.828125 L 0.265625 -7.296875 C 0.890625 -7.304688 1.328125 -7.492188 1.578125 -7.859375 C 1.796875 -8.171875 1.96875 -8.691406 2.09375 -9.421875 L 2.53125 -9.421875 L 2.53125 -7.390625 L 4.75 -7.390625 L 4.75 -6.828125 L 2.53125 -6.828125 L 2.53125 -2 C 2.53125 -0.976562 2.84375 -0.46875 3.46875 -0.46875 C 3.90625 -0.46875 4.304688 -0.695312 4.671875 -1.15625 Z M 5 -0.828125 "/></g></g><g transform="translate(139.538646, 245.051571)"><g><path d="M 7.90625 -0.703125 C 7.6875 -0.179688 7.328125 0.078125 6.828125 0.078125 C 6.117188 0.078125 5.753906 -0.347656 5.734375 -1.203125 C 5.117188 -0.328125 4.265625 0.109375 3.171875 0.109375 C 2.515625 0.109375 1.96875 -0.0664062 1.53125 -0.421875 C 1.0625 -0.796875 0.828125 -1.304688 0.828125 -1.953125 C 0.828125 -3.523438 2.171875 -4.394531 4.859375 -4.5625 L 5.625 -4.609375 L 5.625 -4.875 C 5.625 -6.382812 5.035156 -7.140625 3.859375 -7.140625 C 3.066406 -7.140625 2.53125 -6.875 2.25 -6.34375 C 2.53125 -6.300781 2.671875 -6.125 2.671875 -5.8125 C 2.671875 -5.375 2.453125 -5.15625 2.015625 -5.15625 C 1.535156 -5.15625 1.296875 -5.398438 1.296875 -5.890625 C 1.296875 -6.304688 1.523438 -6.6875 1.984375 -7.03125 C 2.523438 -7.4375 3.175781 -7.640625 3.9375 -7.640625 C 5.6875 -7.640625 6.5625 -6.765625 6.5625 -5.015625 L 6.5625 -1.96875 C 6.5625 -0.96875 6.734375 -0.46875 7.078125 -0.46875 C 7.285156 -0.46875 7.46875 -0.617188 7.625 -0.921875 Z M 5.625 -2.015625 L 5.625 -4.078125 L 5 -4.046875 C 2.914062 -3.941406 1.875 -3.269531 1.875 -2.03125 C 1.875 -1.570312 2.019531 -1.195312 2.3125 -0.90625 C 2.59375 -0.625 2.945312 -0.484375 3.375 -0.484375 C 3.957031 -0.484375 4.484375 -0.664062 4.953125 -1.03125 C 5.265625 -1.28125 5.488281 -1.609375 5.625 -2.015625 Z M 5.625 -2.015625 "/></g></g><g transform="translate(147.683177, 245.051571)"><g><path d="M 4.046875 -0.140625 L 0.40625 -0.140625 L 0.40625 -0.5625 C 0.726562 -0.5625 1 -0.59375 1.21875 -0.65625 C 1.5625 -0.726562 1.734375 -1.015625 1.734375 -1.515625 L 1.734375 -9.34375 C 1.734375 -9.800781 1.617188 -10.078125 1.390625 -10.171875 C 1.242188 -10.234375 0.921875 -10.265625 0.421875 -10.265625 L 0.421875 -10.71875 C 1.222656 -10.738281 1.988281 -10.816406 2.71875 -10.953125 L 2.71875 -1.515625 C 2.71875 -1.054688 2.851562 -0.773438 3.125 -0.671875 C 3.320312 -0.597656 3.628906 -0.5625 4.046875 -0.5625 Z M 4.046875 -0.140625 "/></g></g><g transform="translate(152.077708, 245.051571)"><g/></g><g transform="translate(156.428294, 245.051571)"><g><path d="M 2.484375 -6.109375 C 3.097656 -7.109375 3.941406 -7.609375 5.015625 -7.609375 C 5.835938 -7.609375 6.546875 -7.3125 7.140625 -6.71875 C 7.847656 -6.007812 8.203125 -5.046875 8.203125 -3.828125 C 8.203125 -2.597656 7.84375 -1.617188 7.125 -0.890625 C 6.519531 -0.285156 5.804688 0.015625 4.984375 0.015625 C 3.941406 0.015625 3.117188 -0.40625 2.515625 -1.25 L 2.03125 -0.03125 L 1.515625 -0.03125 L 1.515625 -9.34375 C 1.515625 -9.800781 1.40625 -10.078125 1.1875 -10.171875 C 1.03125 -10.234375 0.710938 -10.265625 0.234375 -10.265625 L 0.234375 -10.71875 C 1.078125 -10.738281 1.828125 -10.816406 2.484375 -10.953125 Z M 2.484375 -4.6875 L 2.484375 -2.734375 C 2.484375 -2.109375 2.8125 -1.5625 3.46875 -1.09375 C 3.90625 -0.769531 4.375 -0.609375 4.875 -0.609375 C 5.632812 -0.609375 6.222656 -0.96875 6.640625 -1.6875 C 6.972656 -2.25 7.140625 -2.953125 7.140625 -3.796875 C 7.140625 -4.921875 6.847656 -5.773438 6.265625 -6.359375 C 5.847656 -6.773438 5.363281 -6.984375 4.8125 -6.984375 C 4.070312 -6.984375 3.453125 -6.640625 2.953125 -5.953125 C 2.640625 -5.535156 2.484375 -5.113281 2.484375 -4.6875 Z M 2.484375 -4.6875 "/></g></g><g transform="translate(165.444406, 245.051571)"><g><path d="M 7.5625 -3.984375 L 1.90625 -3.984375 L 1.90625 -3.71875 C 1.90625 -2.726562 2.207031 -1.925781 2.8125 -1.3125 C 3.3125 -0.820312 3.921875 -0.578125 4.640625 -0.578125 C 5.710938 -0.578125 6.539062 -1.09375 7.125 -2.125 L 7.53125 -1.8125 C 6.882812 -0.539062 5.859375 0.09375 4.453125 0.09375 C 3.410156 0.09375 2.550781 -0.25 1.875 -0.9375 C 1.195312 -1.632812 0.859375 -2.566406 0.859375 -3.734375 C 0.859375 -4.984375 1.21875 -5.96875 1.9375 -6.6875 C 2.5625 -7.320312 3.359375 -7.640625 4.328125 -7.640625 C 5.265625 -7.640625 6.019531 -7.335938 6.59375 -6.734375 C 7.238281 -6.097656 7.5625 -5.269531 7.5625 -4.25 Z M 6.546875 -4.546875 C 6.515625 -5.410156 6.265625 -6.078125 5.796875 -6.546875 C 5.390625 -6.941406 4.894531 -7.140625 4.3125 -7.140625 C 3.613281 -7.140625 3.03125 -6.832031 2.5625 -6.21875 C 2.226562 -5.78125 2.023438 -5.222656 1.953125 -4.546875 Z M 6.546875 -4.546875 "/></g></g><g transform="translate(173.815988, 245.051571)"><g><path d="M 7.90625 -0.703125 C 7.6875 -0.179688 7.328125 0.078125 6.828125 0.078125 C 6.117188 0.078125 5.753906 -0.347656 5.734375 -1.203125 C 5.117188 -0.328125 4.265625 0.109375 3.171875 0.109375 C 2.515625 0.109375 1.96875 -0.0664062 1.53125 -0.421875 C 1.0625 -0.796875 0.828125 -1.304688 0.828125 -1.953125 C 0.828125 -3.523438 2.171875 -4.394531 4.859375 -4.5625 L 5.625 -4.609375 L 5.625 -4.875 C 5.625 -6.382812 5.035156 -7.140625 3.859375 -7.140625 C 3.066406 -7.140625 2.53125 -6.875 2.25 -6.34375 C 2.53125 -6.300781 2.671875 -6.125 2.671875 -5.8125 C 2.671875 -5.375 2.453125 -5.15625 2.015625 -5.15625 C 1.535156 -5.15625 1.296875 -5.398438 1.296875 -5.890625 C 1.296875 -6.304688 1.523438 -6.6875 1.984375 -7.03125 C 2.523438 -7.4375 3.175781 -7.640625 3.9375 -7.640625 C 5.6875 -7.640625 6.5625 -6.765625 6.5625 -5.015625 L 6.5625 -1.96875 C 6.5625 -0.96875 6.734375 -0.46875 7.078125 -0.46875 C 7.285156 -0.46875 7.46875 -0.617188 7.625 -0.921875 Z M 5.625 -2.015625 L 5.625 -4.078125 L 5 -4.046875 C 2.914062 -3.941406 1.875 -3.269531 1.875 -2.03125 C 1.875 -1.570312 2.019531 -1.195312 2.3125 -0.90625 C 2.59375 -0.625 2.945312 -0.484375 3.375 -0.484375 C 3.957031 -0.484375 4.484375 -0.664062 4.953125 -1.03125 C 5.265625 -1.28125 5.488281 -1.609375 5.625 -2.015625 Z M 5.625 -2.015625 "/></g></g><g transform="translate(181.960519, 245.051571)"><g><path d="M 8.90625 -0.140625 L 6.6875 -0.140625 L 6.609375 -1.359375 C 6.015625 -0.359375 5.171875 0.140625 4.078125 0.140625 C 2.429688 0.140625 1.609375 -0.75 1.609375 -2.53125 L 1.609375 -6 C 1.609375 -6.488281 1.5 -6.769531 1.28125 -6.84375 C 1.113281 -6.882812 0.789062 -6.910156 0.3125 -6.921875 L 0.3125 -7.390625 C 1.15625 -7.398438 1.914062 -7.476562 2.59375 -7.625 L 2.59375 -2.765625 C 2.59375 -1.242188 3.144531 -0.484375 4.25 -0.484375 C 4.78125 -0.484375 5.265625 -0.65625 5.703125 -1 C 6.128906 -1.363281 6.425781 -1.851562 6.59375 -2.46875 L 6.59375 -6.015625 C 6.59375 -6.460938 6.472656 -6.738281 6.234375 -6.84375 C 6.097656 -6.894531 5.785156 -6.921875 5.296875 -6.921875 L 5.296875 -7.390625 C 6.054688 -7.398438 6.816406 -7.476562 7.578125 -7.625 L 7.578125 -1.515625 C 7.578125 -1.054688 7.71875 -0.773438 8 -0.671875 C 8.195312 -0.597656 8.5 -0.5625 8.90625 -0.5625 Z M 8.90625 -0.140625 "/></g></g><g transform="translate(191.093819, 245.051571)"><g><path d="M 5 -0.828125 C 4.488281 -0.148438 3.890625 0.1875 3.203125 0.1875 C 2.097656 0.1875 1.546875 -0.441406 1.546875 -1.703125 L 1.546875 -6.828125 L 0.265625 -6.828125 L 0.265625 -7.296875 C 0.890625 -7.304688 1.328125 -7.492188 1.578125 -7.859375 C 1.796875 -8.171875 1.96875 -8.691406 2.09375 -9.421875 L 2.53125 -9.421875 L 2.53125 -7.390625 L 4.75 -7.390625 L 4.75 -6.828125 L 2.53125 -6.828125 L 2.53125 -2 C 2.53125 -0.976562 2.84375 -0.46875 3.46875 -0.46875 C 3.90625 -0.46875 4.304688 -0.695312 4.671875 -1.15625 Z M 5 -0.828125 "/></g></g><g transform="translate(196.074287, 245.051571)"><g><path d="M 8.09375 -6.96875 C 7.46875 -6.945312 7.046875 -6.660156 6.828125 -6.109375 L 3.71875 1.625 C 3.375 2.488281 2.851562 2.921875 2.15625 2.921875 C 1.4375 2.921875 1.078125 2.632812 1.078125 2.0625 C 1.078125 1.582031 1.316406 1.34375 1.796875 1.34375 C 2.234375 1.34375 2.453125 1.5625 2.453125 2 C 2.453125 2.0625 2.445312 2.109375 2.4375 2.140625 L 2.40625 2.28125 C 2.75 2.257812 3.03125 1.953125 3.25 1.359375 L 3.84375 -0.21875 L 1.296875 -5.9375 C 1.117188 -6.34375 0.941406 -6.613281 0.765625 -6.75 C 0.609375 -6.875 0.347656 -6.945312 -0.015625 -6.96875 L -0.015625 -7.390625 L 3.171875 -7.390625 L 3.171875 -6.96875 C 2.515625 -6.945312 2.1875 -6.78125 2.1875 -6.46875 C 2.1875 -6.375 2.226562 -6.222656 2.3125 -6.015625 L 4.3125 -1.328125 L 6.140625 -5.984375 C 6.203125 -6.148438 6.234375 -6.289062 6.234375 -6.40625 C 6.234375 -6.757812 5.890625 -6.945312 5.203125 -6.96875 L 5.203125 -7.390625 L 8.09375 -7.390625 Z M 8.09375 -6.96875 "/></g></g><g transform="translate(204.086982, 245.051571)"><g/></g><g transform="translate(208.437568, 245.051571)"><g><path d="M 5.59375 -5.15625 C 5.519531 -5.726562 5.320312 -6.175781 5 -6.5 C 4.570312 -6.925781 4.066406 -7.140625 3.484375 -7.140625 C 2.992188 -7.140625 2.585938 -6.976562 2.265625 -6.65625 C 2.035156 -6.40625 1.921875 -6.113281 1.921875 -5.78125 C 1.921875 -5.195312 2.425781 -4.742188 3.4375 -4.421875 L 3.828125 -4.3125 C 4.660156 -4.039062 5.25 -3.773438 5.59375 -3.515625 C 6.09375 -3.128906 6.34375 -2.625 6.34375 -2 C 6.34375 -1.257812 6.0625 -0.703125 5.5 -0.328125 C 5.0625 -0.0234375 4.523438 0.125 3.890625 0.125 C 3.328125 0.125 2.734375 -0.0507812 2.109375 -0.40625 C 1.890625 -0.53125 1.722656 -0.59375 1.609375 -0.59375 C 1.441406 -0.59375 1.359375 -0.421875 1.359375 -0.078125 L 0.9375 -0.078125 L 0.9375 -2.8125 L 1.390625 -2.8125 C 1.441406 -2.113281 1.65625 -1.570312 2.03125 -1.1875 C 2.519531 -0.6875 3.132812 -0.4375 3.875 -0.4375 C 4.90625 -0.4375 5.421875 -0.894531 5.421875 -1.8125 C 5.421875 -2.21875 5.269531 -2.550781 4.96875 -2.8125 C 4.757812 -2.96875 4.273438 -3.179688 3.515625 -3.453125 L 3.0625 -3.609375 C 2.375 -3.828125 1.910156 -4.035156 1.671875 -4.234375 C 1.234375 -4.578125 1.015625 -5.03125 1.015625 -5.59375 C 1.015625 -6.144531 1.222656 -6.617188 1.640625 -7.015625 C 2.085938 -7.429688 2.671875 -7.640625 3.390625 -7.640625 C 4.015625 -7.640625 4.570312 -7.488281 5.0625 -7.1875 C 5.207031 -7.101562 5.328125 -7.0625 5.421875 -7.0625 C 5.535156 -7.0625 5.609375 -7.207031 5.640625 -7.5 L 6.015625 -7.5 L 6.015625 -5.15625 Z M 5.59375 -5.15625 "/></g></g><g transform="translate(215.57868, 245.051571)"><g><path d="M 7.90625 -0.703125 C 7.6875 -0.179688 7.328125 0.078125 6.828125 0.078125 C 6.117188 0.078125 5.753906 -0.347656 5.734375 -1.203125 C 5.117188 -0.328125 4.265625 0.109375 3.171875 0.109375 C 2.515625 0.109375 1.96875 -0.0664062 1.53125 -0.421875 C 1.0625 -0.796875 0.828125 -1.304688 0.828125 -1.953125 C 0.828125 -3.523438 2.171875 -4.394531 4.859375 -4.5625 L 5.625 -4.609375 L 5.625 -4.875 C 5.625 -6.382812 5.035156 -7.140625 3.859375 -7.140625 C 3.066406 -7.140625 2.53125 -6.875 2.25 -6.34375 C 2.53125 -6.300781 2.671875 -6.125 2.671875 -5.8125 C 2.671875 -5.375 2.453125 -5.15625 2.015625 -5.15625 C 1.535156 -5.15625 1.296875 -5.398438 1.296875 -5.890625 C 1.296875 -6.304688 1.523438 -6.6875 1.984375 -7.03125 C 2.523438 -7.4375 3.175781 -7.640625 3.9375 -7.640625 C 5.6875 -7.640625 6.5625 -6.765625 6.5625 -5.015625 L 6.5625 -1.96875 C 6.5625 -0.96875 6.734375 -0.46875 7.078125 -0.46875 C 7.285156 -0.46875 7.46875 -0.617188 7.625 -0.921875 Z M 5.625 -2.015625 L 5.625 -4.078125 L 5 -4.046875 C 2.914062 -3.941406 1.875 -3.269531 1.875 -2.03125 C 1.875 -1.570312 2.019531 -1.195312 2.3125 -0.90625 C 2.59375 -0.625 2.945312 -0.484375 3.375 -0.484375 C 3.957031 -0.484375 4.484375 -0.664062 4.953125 -1.03125 C 5.265625 -1.28125 5.488281 -1.609375 5.625 -2.015625 Z M 5.625 -2.015625 "/></g></g><g transform="translate(223.723211, 245.051571)"><g><path d="M 4.046875 -0.140625 L 0.40625 -0.140625 L 0.40625 -0.5625 C 0.726562 -0.5625 1 -0.59375 1.21875 -0.65625 C 1.5625 -0.726562 1.734375 -1.015625 1.734375 -1.515625 L 1.734375 -9.34375 C 1.734375 -9.800781 1.617188 -10.078125 1.390625 -10.171875 C 1.242188 -10.234375 0.921875 -10.265625 0.421875 -10.265625 L 0.421875 -10.71875 C 1.222656 -10.738281 1.988281 -10.816406 2.71875 -10.953125 L 2.71875 -1.515625 C 2.71875 -1.054688 2.851562 -0.773438 3.125 -0.671875 C 3.320312 -0.597656 3.628906 -0.5625 4.046875 -0.5625 Z M 4.046875 -0.140625 "/></g></g><g transform="translate(228.117742, 245.051571)"><g><path d="M 4.421875 -7.671875 C 5.398438 -7.671875 6.226562 -7.335938 6.90625 -6.671875 C 7.625 -5.941406 7.984375 -4.992188 7.984375 -3.828125 C 7.984375 -2.597656 7.625 -1.625 6.90625 -0.90625 C 6.226562 -0.238281 5.398438 0.09375 4.421875 0.09375 C 3.429688 0.09375 2.601562 -0.238281 1.9375 -0.90625 C 1.21875 -1.625 0.859375 -2.585938 0.859375 -3.796875 C 0.859375 -4.984375 1.222656 -5.945312 1.953125 -6.6875 C 2.609375 -7.34375 3.429688 -7.671875 4.421875 -7.671875 Z M 4.421875 -7.15625 C 3.671875 -7.15625 3.070312 -6.835938 2.625 -6.203125 C 2.1875 -5.585938 1.96875 -4.785156 1.96875 -3.796875 C 1.96875 -2.742188 2.207031 -1.914062 2.6875 -1.3125 C 3.125 -0.75 3.703125 -0.46875 4.421875 -0.46875 C 5.304688 -0.46875 5.957031 -0.859375 6.375 -1.640625 C 6.707031 -2.265625 6.875 -2.976562 6.875 -3.78125 C 6.875 -4.84375 6.632812 -5.679688 6.15625 -6.296875 C 5.707031 -6.867188 5.128906 -7.15625 4.421875 -7.15625 Z M 4.421875 -7.15625 "/></g></g><g transform="translate(236.950749, 245.051571)"><g><path d="M 9.140625 -0.140625 L 5.53125 -0.140625 L 5.53125 -0.5625 C 5.851562 -0.5625 6.125 -0.585938 6.34375 -0.640625 C 6.675781 -0.734375 6.84375 -1.023438 6.84375 -1.515625 L 6.84375 -4.671875 C 6.84375 -6.171875 6.285156 -6.921875 5.171875 -6.921875 C 4.085938 -6.921875 3.328125 -6.328125 2.890625 -5.140625 L 2.890625 -1.515625 C 2.890625 -1.054688 3.023438 -0.773438 3.296875 -0.671875 C 3.492188 -0.597656 3.789062 -0.5625 4.1875 -0.5625 L 4.1875 -0.140625 L 0.578125 -0.140625 L 0.578125 -0.5625 C 0.929688 -0.5625 1.203125 -0.59375 1.390625 -0.65625 C 1.722656 -0.75 1.890625 -1.035156 1.890625 -1.515625 L 1.890625 -6 C 1.890625 -6.46875 1.769531 -6.75 1.53125 -6.84375 C 1.363281 -6.894531 1.046875 -6.921875 0.578125 -6.921875 L 0.578125 -7.390625 C 1.429688 -7.398438 2.179688 -7.476562 2.828125 -7.625 L 2.828125 -6.046875 C 3.441406 -7.066406 4.296875 -7.578125 5.390625 -7.578125 C 7.023438 -7.578125 7.84375 -6.675781 7.84375 -4.875 L 7.84375 -1.515625 C 7.84375 -1.054688 7.988281 -0.773438 8.28125 -0.671875 C 8.46875 -0.597656 8.753906 -0.5625 9.140625 -0.5625 Z M 9.140625 -0.140625 "/></g></g></g></svg>